General

Complete name                    : Fateless.mkv

Format                           : Matroska

File size                        : 1.29 GiB

Duration                         : 2h 14mn

Overall bit rate                 : 1 370 Kbps





Video

ID                               : 1

Format                           : AVC

Duration                         : 2h 14mn

Bit rate                         : 894 Kbps

Width                            : 716 pixels

Height                           : 328 pixels

Display aspect ratio             : 2.35:1

Frame rate                       : 25.000 fps

Resolution                       : 8 bits

Colorimetry                      : 4:2:0

Scan type                        : Progressive

Bits/(Pixel*Frame)               : 0.152

Stream size                      : 861 MiB (65%)

Writing library                  : x264 core 79





Audio

ID                               : 2

Format                           : AC-3

Format/Info                      : Audio Coding 3

Codec ID                         : A_AC3

Duration                         : 2h 14mn

Bit rate mode                    : Constant

Bit rate                         : 448 Kbps

Channel(s)                       : 6 channels

Channel positions                : Front: L C R, Surround: L R, LFE

Sampling rate                    : 48.0 KHz

Stream size                      : 431 MiB (33%)


Language                         : Hungarian



Text #1

Language                         : Danish



Text #2

Language                         : Norwegian



Text #3

Language                         : Swedish




